<?xml version="1.0" encoding="utf-8"?>
<!-- Generator: Adobe Illustrator 19.0.0, SVG Export Plug-In . SVG Version: 6.00 Build 0)  -->
<svg version="1.1" id="Layer_1" xmlns="http://www.w3.org/2000/svg" xmlns:xlink="http://www.w3.org/1999/xlink" x="0px" y="0px"
	 viewBox="-291 203.53 12 12" style="enable-background:new -291 203.53 12 12;" xml:space="preserve">
<style type="text/css">
	.st0{fill:#1894D9;}
</style>
<path class="st0" d="M-290.5,207.288c0-0.217,0.096-0.424,0.263-0.567c0.304-0.266,0.774-0.254,1.069,0.03l4.168,3.956l4.173-3.958
	c0.287-0.28,0.757-0.293,1.066-0.025l0,0c0,0,0,0,0.001,0l0,0c0.159,0.137,0.253,0.335,0.259,0.542
	c-0.007,0.219-0.077,0.411-0.227,0.557l-4.726,4.489c-0.135,0.136-0.338,0.218-0.547,0.218c-0.21,0-0.407-0.08-0.554-0.224
	l-4.714-4.479C-290.419,207.68-290.5,207.49-290.5,207.288z"/>
</svg>
